<?xml version="1.0" encoding="UTF-8"?>
<svg id="Layer_2" data-name="Layer 2" xmlns="http://www.w3.org/2000/svg" viewBox="0 0 359.93 99.57">
  <defs>
    <style>
      .cls-1 {
        fill: #231f20;
      }
    </style>
  </defs>
  <g id="Layer_1-2" data-name="Layer 1">
    <g>
      <path class="cls-1" d="M116.22,42.09c-3.71-3.37-7.84-5.67-12.38-6.91,3.03-.96,5.93-2.6,8.72-4.9,2.78-2.3,5.29-5.05,7.53-8.25,2.23-3.2,4.04-6.69,5.42-10.47,1.37-3.78,2.17-7.63,2.37-11.55h-15.68c-.34,6.05-1.65,11.24-3.92,15.58-2.27,4.33-5.33,7.69-9.18,10.06-3.85,2.37-8.39,3.56-13.62,3.56V0h-14.54v72h14.54v-30.64c5.5-.07,10.33,1.1,14.49,3.51,4.16,2.41,7.51,5.9,10.06,10.47,2.54,4.57,4.02,10.13,4.44,16.66h15.68c-.62-6.53-2.17-12.31-4.64-17.33s-5.57-9.21-9.28-12.58Z"/>
      <path class="cls-1" d="M8.86,72.09c-5.91,0-8.86-2.68-8.86-8.03,0-1.17.29-2.78.88-4.84.58-2.06,1.34-4.38,2.27-6.95s1.94-5.19,3.04-7.83c1.1-2.64,2.13-5.13,3.09-7.47l10.2-24.21c.14-.55.21-.93.21-1.13,0-1.03-.41-2.09-1.24-3.19h5.67c1.85,0,2.78.45,2.78,1.34,0,.41-.21,1.13-.62,2.16-2.2,5.22-4.94,11.76-8.24,19.62-3.3,7.87-7.11,17.05-11.44,27.56-.96,2.47-1.44,4.57-1.44,6.28,0,3.23,1.17,4.84,3.5,4.84s5.49-2.23,9.27-6.7c1.58-1.92,3.04-3.95,4.38-6.08,1.34-2.13,2.45-4.36,3.35-6.7,1.1-2.68,1.65-5.15,1.65-7.42,0-1.99-.46-3.38-1.39-4.17-.93-.79-2.32-1.18-4.17-1.18h-.51c-1.1,0-1.65-.34-1.65-1.03,0-.75.69-1.13,2.06-1.13h.72c.27,0,.55.04.82.1,5.77.82,8.65,4.43,8.65,10.82,0,5.01-1.68,9.96-5.05,14.83-4.81,7.01-10.78,10.51-17.92,10.51Z"/>
      <path class="cls-1" d="M28.9,99.57c-3.8,0-6.61-1.23-8.44-3.69-.77-1.2-1.16-2.78-1.16-4.75,0-1.55.21-2.67.63-3.38l2-.1c-.42,1.12-.63,2.21-.63,3.27,0,3.8,2.21,5.7,6.64,5.7,3.87,0,7.87-3.02,12.02-9.07,1.55-2.25,3.13-4.96,4.75-8.12,1.62-3.16,3.23-6.79,4.85-10.86,1.12-2.67,2.2-5.34,3.22-8.01,1.02-2.67,2.06-5.34,3.11-8.02-1.83,3.24-3.36,5.87-4.59,7.91-1.23,2.04-2.13,3.45-2.69,4.22-3.66,4.92-7.24,7.38-10.76,7.38-3.94,0-5.91-2.57-5.91-7.7,0-3.37.77-6.96,2.32-10.76,2.25-5.48,4.57-10.65,6.96-15.5.77-1.48,2.11-2.22,4.01-2.22h5.59c-1.97,1.41-4.04,4.36-6.22,8.86-4.92,9.91-7.38,16.98-7.38,21.2,0,2.32.84,3.48,2.53,3.48,3.23,0,7.35-4.39,12.34-13.18.35-.7,1.3-2.58,2.85-5.64,1.55-3.06,3.62-7.26,6.22-12.6.77-1.48,2.11-2.21,4.01-2.21h8.87c-4.45.23-5.05,2.61-5.92,3.8-.56.91-1.25,2.11-2.06,3.59-.81,1.48-1.67,3.27-2.58,5.38-1.13,2.74-2.6,6.49-4.43,11.23-1.83,4.74-4.18,10.46-7.07,17.14-1.48,3.52-2.94,6.52-4.38,9.02-1.44,2.49-2.76,4.52-3.95,6.06-4.08,5.06-9,7.59-14.76,7.59Z"/>
      <path class="cls-1" d="M191.99,72h17.1L177.5,0h-16.1l-31.29,72h16.7l6.28-15.43h32.62l6.28,15.43ZM158.24,43.92l11.16-27.45,11.16,27.45h-22.33Z"/>
      <polygon class="cls-1" points="276.89 0 251.05 44.7 224.68 0 211.2 0 211.2 72 226.39 72 226.39 29.53 247.12 64.29 254.36 64.29 275.1 29.06 275.28 72 290.47 72 290.47 0 276.89 0"/>
      <path class="cls-1" d="M344.2,0v39.13c0,6.67-1.35,11.51-4.05,14.51-2.7,3-6.49,4.5-11.37,4.5s-8.57-1.5-11.28-4.5c-2.7-3-4.05-7.84-4.05-14.51V0h-16.12v39.54c0,10.45,2.77,18.47,8.31,24.07,5.54,5.6,13.22,8.39,23.04,8.39s17.41-2.8,22.95-8.39c5.54-5.59,8.31-13.62,8.31-24.07V0h-15.73Z"/>
    </g>
  </g>
</svg>