<svg id="Layer_1" data-name="Layer 1" xmlns="http://www.w3.org/2000/svg" viewBox="0 0 1920 1080"><path d="M661.36,838.4h-1.09V816h1.09Zm15.9-10.88H661.17v-1h16.09ZM677.07,816h1.09v22.4h-1.09Z"/><path d="M716.53,838.53a12.27,12.27,0,0,1-4.58-.85,11,11,0,0,1-3.68-2.39,10.61,10.61,0,0,1-2.43-3.6,12,12,0,0,1,0-9,10.7,10.7,0,0,1,2.43-3.6,11,11,0,0,1,3.68-2.38,12.16,12.16,0,0,1,4.61-.85,12,12,0,0,1,4.57.85,11,11,0,0,1,3.67,2.38,11.46,11.46,0,0,1,0,16.19,11,11,0,0,1-3.67,2.39A12.3,12.3,0,0,1,716.53,838.53Zm0-1a11.15,11.15,0,0,0,4.16-.76,10,10,0,0,0,5.55-5.46,11.22,11.22,0,0,0,0-8.22,10,10,0,0,0-5.55-5.46,11.15,11.15,0,0,0-4.16-.77,11,11,0,0,0-4.13.77,10,10,0,0,0-3.35,2.18,9.75,9.75,0,0,0-2.2,3.29,11.06,11.06,0,0,0,0,8.21,9.91,9.91,0,0,0,2.2,3.28,10.11,10.11,0,0,0,3.35,2.18A11,11,0,0,0,716.53,837.53Z"/><path d="M759.18,838.4V817H751v-1h17.5v1h-8.22V838.4Z"/><path d="M794.67,837.41h14.05v1H793.58V816h14.69v1h-13.6Zm-.19-10.88h12.35v1H794.48Z"/><path d="M835.85,838.4V816h1.09v21.41h13.12v1Z"/><path d="M1091.82,838.4V816h7.78a11.75,11.75,0,0,1,4.78.89,6.91,6.91,0,0,1,3.06,2.55,7.24,7.24,0,0,1,1,4,7.34,7.34,0,0,1-1,4,6.87,6.87,0,0,1-3.06,2.56,11.58,11.58,0,0,1-4.78.9h-7.17l.48-.51v8Zm1.09-8-.48-.48h7.23a8.72,8.72,0,0,0,5.78-1.7,6.66,6.66,0,0,0,0-9.52,8.78,8.78,0,0,0-5.78-1.68h-7.23l.48-.51Zm14.65,8-5.82-8.13H1103l5.85,8.13Z"/><path d="M1136.78,837.41h14v1h-15.14V816h14.69v1h-13.6Zm-.19-10.88h12.35v1h-12.35Z"/><path d="M1187.24,838.53a12.22,12.22,0,0,1-4.57-.85,11,11,0,0,1-3.68-2.39,10.78,10.78,0,0,1-2.44-3.6,12.18,12.18,0,0,1,0-9,10.88,10.88,0,0,1,2.44-3.6,11,11,0,0,1,3.68-2.38,12,12,0,0,1,4.57-.85,12.4,12.4,0,0,1,4.29.74,9.19,9.19,0,0,1,3.49,2.24l-.67.7a9.09,9.09,0,0,0-3.28-2.06,11.31,11.31,0,0,0-3.8-.63,10.78,10.78,0,0,0-4.16.79,10.09,10.09,0,0,0-3.34,2.19,9.94,9.94,0,0,0-2.21,3.28,11.06,11.06,0,0,0,0,8.16,9.94,9.94,0,0,0,2.21,3.28,10.09,10.09,0,0,0,3.34,2.19,11,11,0,0,0,4.16.78,11.3,11.3,0,0,0,3.8-.62,9.07,9.07,0,0,0,3.28-2.1l.67.71a9.46,9.46,0,0,1-3.49,2.25A12,12,0,0,1,1187.24,838.53Z"/><path d="M1231,838.53a12.26,12.26,0,0,1-4.57-.85,11,11,0,0,1-3.68-2.39,10.61,10.61,0,0,1-2.43-3.6,12,12,0,0,1,0-9,10.7,10.7,0,0,1,2.43-3.6,11,11,0,0,1,3.68-2.38,12.82,12.82,0,0,1,9.18,0,11,11,0,0,1,3.67,2.38,11.17,11.17,0,0,1,3.31,8.1,11.42,11.42,0,0,1-.88,4.49,11.21,11.21,0,0,1-2.43,3.6,11,11,0,0,1-3.67,2.39A12.36,12.36,0,0,1,1231,838.53Zm0-1a11.11,11.11,0,0,0,4.16-.76,10,10,0,0,0,5.56-5.46,11.22,11.22,0,0,0,0-8.22,10,10,0,0,0-5.56-5.46,11.51,11.51,0,0,0-8.28,0,10,10,0,0,0-5.56,5.47,11.19,11.19,0,0,0,0,8.21,10,10,0,0,0,5.56,5.46A11,11,0,0,0,1231,837.53Z"/><path d="M1275.56,838.4l-10-22.4h1.22l9.7,21.66h-.61l9.69-21.66h1.16l-10.05,22.4Z"/><path d="M1313,837.41h14v1h-15.14V816h14.69v1H1313Zm-.19-10.88h12.35v1h-12.35Z"/><path d="M1354.18,838.4V816H1362a11.8,11.8,0,0,1,4.79.89,6.83,6.83,0,0,1,3,2.55,7.25,7.25,0,0,1,1.06,4,7.34,7.34,0,0,1-1.06,4,6.79,6.79,0,0,1-3,2.56,11.63,11.63,0,0,1-4.79.9h-7.17l.48-.51v8Zm1.09-8-.48-.48H1362a8.7,8.7,0,0,0,5.78-1.7,6.66,6.66,0,0,0,0-9.52A8.76,8.76,0,0,0,1362,817h-7.23l.48-.51Zm14.66,8-5.83-8.13h1.25l5.86,8.13Z"/><path d="M1403.27,838.4v-8l.26.74L1394.22,816h1.18l8.7,14.14h-.54L1412.3,816h1.15l-9.35,15.17.26-.74v8Z"/><path d="M881.73,648.8a19.65,19.65,0,0,0,5.67,14.5A18.89,18.89,0,0,0,901.27,669h4.41v7.56H869.76a38,38,0,0,1-27.42-11.34,37.18,37.18,0,0,1-11.66-27.73V396.69q0-36.54-7.88-51.68t-35-15.13q-20.79,0-39.71,12.29a110.52,110.52,0,0,0-31.51,30.89,174.16,174.16,0,0,0-20.17,40q-7.56,21.44-7.56,40.34V648.8a19.65,19.65,0,0,0,5.67,14.5A18.86,18.86,0,0,0,708.41,669h3.78v7.56h-35.3a38.72,38.72,0,0,1-39.07-39.07V396.69q0-36.54-7.88-51.68t-35-15.13q-27.11,0-50.74,20.8a137.85,137.85,0,0,0-35.93,49.16Q496,428.21,496,453.42v184a37.22,37.22,0,0,1-11.66,27.73,38.79,38.79,0,0,1-28,11.34H421V669h3.78A20,20,0,0,0,439,663.3a19.11,19.11,0,0,0,6-14.5V361.4A38.74,38.74,0,0,1,484,322.32h35.29v7.56h-3.78a18.85,18.85,0,0,0-13.86,5.67,19.63,19.63,0,0,0-5.68,14.5v50.42q0-.62,4.1-9.14t8.19-15.75q4.09-7.24,13.24-17.65a104.17,104.17,0,0,1,19.85-17.65q10.71-7.23,27.1-12.6a115.14,115.14,0,0,1,35.93-5.36q41.6,0,63,21.74t21.43,60.82v-4.41q.61-.62,4.72-9.14t8.2-15.75q4.1-7.24,13.23-17.65a109.67,109.67,0,0,1,19.54-17.65Q745,333,761.35,327.68a115.09,115.09,0,0,1,35.93-5.36q41.6,0,63,21.74t21.43,60.82Z"/><path d="M1004.94,211.36a35.76,35.76,0,0,0-50.42,0,35,35,0,0,0,0,49.79,35.76,35.76,0,0,0,50.42,0,35,35,0,0,0,0-49.79"/><path d="M995.47,350.05V648.8a19.65,19.65,0,0,0,5.67,14.5A18.89,18.89,0,0,0,1015,669h3.78v7.56H920.47V669h3.78a20,20,0,0,0,14.18-5.67,19.11,19.11,0,0,0,6-14.5V357.61q0-13.85,11.66-24.58a39.2,39.2,0,0,1,27.42-10.71h35.29v7.56H1015a18.89,18.89,0,0,0-13.87,5.67,19.65,19.65,0,0,0-5.67,14.5"/><path d="M1410.65,669q39.7,0,70.27-32.46t30.57-67.75V421.27q-6.95,11.34-24.27,23a290.88,290.88,0,0,1-31.82,18.91q-14.52,7.24-44.75,20.48-76.28,33.41-76.27,106.52a96.79,96.79,0,0,0,5.36,33.09,66.73,66.73,0,0,0,15.44,24.89,67.56,67.56,0,0,0,24.27,15.44,87.63,87.63,0,0,0,31.2,5.36m151.89-20.17a19.65,19.65,0,0,0,5.67,14.5,18.89,18.89,0,0,0,13.87,5.67h3.78v7.56h-35.29a38.78,38.78,0,0,1-28-11.34,37.18,37.18,0,0,1-11.66-27.73V626.11q0,.63-4.1,5.36a123.56,123.56,0,0,1-13.55,12.6,187.81,187.81,0,0,1-21.11,15.13q-11.67,7.24-29,12.29a126.89,126.89,0,0,1-35.61,5,269.51,269.51,0,0,1-32.14-1.89,184.52,184.52,0,0,1-35-8.19q-19.23-6.32-32.14-16.7t-20.49-29.31q-7.56-18.91-3.78-43.49a74.74,74.74,0,0,1,7.88-24.58,76,76,0,0,1,16.39-20.8q10.39-9.45,20.79-17.33a158.38,158.38,0,0,1,25.85-15.44q15.44-7.57,27.1-12.93t28-11.66a46.89,46.89,0,0,0,5.67-2.52q18.9-6.93,28.36-11t24.58-12.6q15.13-8.51,22.69-16.07a76.39,76.39,0,0,0,13.55-19.23,55.05,55.05,0,0,0,6-25.52v-.63q0-23.31-18-40t-47-16.7c-29.41,0-50.55,17.1-68.61,57.85l-2.61,4.55q-8.21,16.39-25.21,16.39-12,0-19.85-8.2a27.15,27.15,0,0,1-7.88-19.54A26.62,26.62,0,0,1,1330,361.4q15.13-17,47-28t69-11q44.74,0,80.68,22.37t35.92,60.19Z"/><path d="M1305.5,380.23a27.15,27.15,0,0,1-7.88,19.53,26.35,26.35,0,0,1-19.85,8.2q-16.71,0-24.9-15.79a2.68,2.68,0,0,1-.31-1.27,23.58,23.58,0,0,0-1.23-3.17c-18-40.39-40.71-58.56-70-58.56q-29,0-47,16.71a58.24,58.24,0,0,0-12.23,15.77,41.07,41.07,0,0,0-3.66,10.26c0,.2-.06,11.62-.06,11.82v30.94c0,.42,0,.65,0,.65V648.8a19.65,19.65,0,0,0,5.67,14.5A18.88,18.88,0,0,0,1138,669h3.78v7.56H1042v-8.19h3.78a19.65,19.65,0,0,0,14.5-5.67,18.88,18.88,0,0,0,5.67-13.87V350.05a19.43,19.43,0,0,0-20.17-20.17h-7.56v-7.56h39.08a40.75,40.75,0,0,1,14.62,2.62,39.78,39.78,0,0,1,5.23,2.42,40.85,40.85,0,0,1,13,11.18q32.24-16.92,71.15-16.93,37.19,0,69,11t47,28.05a26.67,26.67,0,0,1,8.19,19.54"/><path d="M994.88,827.23a1.24,1.24,0,0,0-1.68.19,2.31,2.31,0,0,1-1,.74c-5.44,1.57-4.49-8.65-8-10.12-4.6-1.95-5.72,3.39-8.06,6-3.09,3.5-5.59,4.06-10,2.21-1.06-.44-9.39-7.78-10.06-8.74-3.24-4.59.37-9.13,2.92-12.82a26.52,26.52,0,0,1,2.63-3,6.56,6.56,0,0,0,1-.91,4.36,4.36,0,0,1,1.29-1.06,1.54,1.54,0,0,1,1.58.08,1.32,1.32,0,0,1,.54,1.13,2.18,2.18,0,0,0-.05.39v0c-.91,3.46,0,6.63.75,9.65,1.55,5.82,3.68-.93,4.53-2.3,1.11-1.77,7.54-6.56,9.56-6.56,1.81,0,5.81,2.61,8.18,3.24a27.85,27.85,0,0,0,4.38.81c.43,0,.93,0,1.44,0Zm0,16.55c0,.26,0,.52,0,.79a25.17,25.17,0,0,1-1.44,7.73,1.68,1.68,0,0,1-.12.36,25.48,25.48,0,0,1-23.81,16.67,24.85,24.85,0,0,1-8.65-1.52l-.27-.1a16.46,16.46,0,0,1,.61-5.28c.76-3.15,6.17,1.58,10-2.43,3.35-3.54-1.23-9.92,7.61-17.09,3.12-2.52,9.77-2.75,15.67-2.55a.91.91,0,0,0,.44-.09Zm-37,16.51a1,1,0,0,1-.42.29c-8.22,2.88-4.22-5.52-5.18-9.8-.94-4.07-5.38-5.33-6.17-8.81a1.61,1.61,0,0,1,.81-1.77c3.15-1.67,6.59.78,10.47-1.54s4.86-8,8.65-9.13c2.68-.79,6.52-.32,9.31-1.15l1.22-.09h.22c3.66.44,6.13,3.49,8.94,5.07,2.08,1.18,5,1.4,6.53,2.33s1,2.62-.88,2.5c-6.76-.41-11.43,2.18-17.14,5.89-6.54,4.24-11.15,10.56-16.36,16.21m.77,6.58c-.69-.33-1.35-.67-2-1A23.86,23.86,0,0,1,954,864a18,18,0,0,1,3.73.07,1,1,0,0,1,.76.53,7.18,7.18,0,0,1,.79,2.57l-.66-.31m-9.87-8.37s-.06-.08-.09-.13a25.43,25.43,0,0,1-4.55-14.59V832.62h0a2,2,0,0,1,.82.87c1.08,2.16-1.08,7-.27,10.7.54,2.48,3.37,3.41,4.23,5.78a13.9,13.9,0,0,1-.15,8.52m-4.64-52.7H945a4.09,4.09,0,0,1,2.5,1.31c7.57,5.2,3.75,5.93,7.43,11.69,3.3,5.19,10.4,3.75,6.66,11.49-1.5,3.11-5.56,8.7-9.42,7-4.64-2-1.87-9.28-6.39-11.39a3.33,3.33,0,0,0-1.15-.3,1,1,0,0,0-.46.09Zm7.19-18c.5-.54,1.05-1,1.6-1.53a23.25,23.25,0,0,1,3.23-2.42,25.16,25.16,0,0,1,11.49-3.74h.17a14.42,14.42,0,0,1,.81,7c-.5,3.29-9.53,15.74-12.29,17.5-3.58,2.31-10.53-.1-10.52-4.9,0-2.12,2.77-7.4,5.51-11.9m25.93-6.56a26.12,26.12,0,0,1,5.51,2.55l.72.46a24.75,24.75,0,0,1,4,3.26c.52.54,1,1.08,1.47,1.64a.37.37,0,0,1,.09.11.57.57,0,0,0-.14,0,15.92,15.92,0,0,0-6.38,4.42c-2.85,3.49-5.82,11.57-11.27,11a3.38,3.38,0,0,1-3.06-2.78c-.7-4.42,5.71-9.16,7.09-14.19a2.28,2.28,0,0,0-1.92-2.87c-2.44-.35-2.13-2.59-3.35-4.81a25.26,25.26,0,0,1,7.26,1.2m12.88,9.46.17.22a25.76,25.76,0,0,1,4.5,12.35.67.67,0,0,0-.31-.07c-.7,0-1.38-.11-2-.21-2-.29-7.91-2.77-9.09-4.22-2.09-2.6,1.57-4.7,3.43-6a28.61,28.61,0,0,1,2.9-1.7.92.92,0,0,0,.41-.42m5.82,12.49v0a27,27,0,0,0-4.7-12.92c-.4-.56-.8-1.1-1.22-1.6a2.55,2.55,0,0,0-.19-.23,21.36,21.36,0,0,0-1.56-1.73,25.93,25.93,0,0,0-4.16-3.41c-.26-.18-.51-.33-.77-.49a27,27,0,0,0-5.75-2.67,26.39,26.39,0,0,0-8-1.26h-.14c-.54,0-1.26,0-2,.08a23.87,23.87,0,0,0-3.63.53,26.2,26.2,0,0,0-8.37,3.39,23.63,23.63,0,0,0-3.38,2.53,26.52,26.52,0,0,0-9.06,17.55c-.07.75-.12,1.55-.13,2.35v38.53A26.68,26.68,0,0,0,947.7,859a3.4,3.4,0,0,0,.21.28l.09.11a25.93,25.93,0,0,0,4.64,5l.14.12a26.42,26.42,0,0,0,3.3,2.29c.64.38,1.33.76,2.06,1.1.34.16.67.31,1,.42.53.24,1,.43,1.37.56a26.07,26.07,0,0,0,9,1.59,26.66,26.66,0,0,0,24.88-17.4c.06-.15.11-.29.18-.52a26.34,26.34,0,0,0,1.47-8c0-.28,0-.57,0-.85V805.55c0-.82,0-1.61-.1-2.4"/><path d="M994.88,827.23a1.24,1.24,0,0,0-1.68.19,2.31,2.31,0,0,1-1,.74c-5.44,1.57-4.49-8.65-8-10.12-4.6-1.95-5.72,3.39-8.06,6-3.09,3.5-5.59,4.06-10,2.21-1.06-.44-9.39-7.78-10.06-8.74-3.24-4.59.37-9.13,2.92-12.82a26.52,26.52,0,0,1,2.63-3,6.56,6.56,0,0,0,1-.91,4.36,4.36,0,0,1,1.29-1.06,1.54,1.54,0,0,1,1.58.08,1.32,1.32,0,0,1,.54,1.13,2.18,2.18,0,0,0-.05.39v0c-.91,3.46,0,6.63.75,9.65,1.55,5.82,3.68-.93,4.53-2.3,1.11-1.77,7.54-6.56,9.56-6.56,1.81,0,5.81,2.61,8.18,3.24a27.85,27.85,0,0,0,4.38.81c.43,0,.93,0,1.44,0Zm0,16.55c0,.26,0,.52,0,.79a25.17,25.17,0,0,1-1.44,7.73,1.68,1.68,0,0,1-.12.36,25.48,25.48,0,0,1-23.81,16.67,24.85,24.85,0,0,1-8.65-1.52l-.27-.1a16.46,16.46,0,0,1,.61-5.28c.76-3.15,6.17,1.58,10-2.43,3.35-3.54-1.23-9.92,7.61-17.09,3.12-2.52,9.77-2.75,15.67-2.55a.91.91,0,0,0,.44-.09Zm-37,16.51a1,1,0,0,1-.42.29c-8.22,2.88-4.22-5.52-5.18-9.8-.94-4.07-5.38-5.33-6.17-8.81a1.61,1.61,0,0,1,.81-1.77c3.15-1.67,6.59.78,10.47-1.54s4.86-8,8.65-9.13c2.68-.79,6.52-.32,9.31-1.15l1.22-.09h.22c3.66.44,6.13,3.49,8.94,5.07,2.08,1.18,5,1.4,6.53,2.33s1,2.62-.88,2.5c-6.76-.41-11.43,2.18-17.14,5.89-6.54,4.24-11.15,10.56-16.36,16.21m.77,6.58c-.69-.33-1.35-.67-2-1A23.86,23.86,0,0,1,954,864a18,18,0,0,1,3.73.07,1,1,0,0,1,.76.53,7.18,7.18,0,0,1,.79,2.57l-.66-.31m-9.87-8.37s-.06-.08-.09-.13a25.43,25.43,0,0,1-4.55-14.59V832.62h0a2,2,0,0,1,.82.87c1.08,2.16-1.08,7-.27,10.7.54,2.48,3.37,3.41,4.23,5.78a13.9,13.9,0,0,1-.15,8.52m-4.64-52.7H945a4.09,4.09,0,0,1,2.5,1.31c7.57,5.2,3.75,5.93,7.43,11.69,3.3,5.19,10.4,3.75,6.66,11.49-1.5,3.11-5.56,8.7-9.42,7-4.64-2-1.87-9.28-6.39-11.39a3.33,3.33,0,0,0-1.15-.3,1,1,0,0,0-.46.09Zm7.19-18c.5-.54,1.05-1,1.6-1.53a23.25,23.25,0,0,1,3.23-2.42,25.16,25.16,0,0,1,11.49-3.74h.17a14.42,14.42,0,0,1,.81,7c-.5,3.29-9.53,15.74-12.29,17.5-3.58,2.31-10.53-.1-10.52-4.9,0-2.12,2.77-7.4,5.51-11.9m25.93-6.56a26.12,26.12,0,0,1,5.51,2.55l.72.46a24.75,24.75,0,0,1,4,3.26c.52.54,1,1.08,1.47,1.64a.37.37,0,0,1,.09.11.57.57,0,0,0-.14,0,15.92,15.92,0,0,0-6.38,4.42c-2.85,3.49-5.82,11.57-11.27,11a3.38,3.38,0,0,1-3.06-2.78c-.7-4.42,5.71-9.16,7.09-14.19a2.28,2.28,0,0,0-1.92-2.87c-2.44-.35-2.13-2.59-3.35-4.81a25.26,25.26,0,0,1,7.26,1.2m12.88,9.46.17.22a25.76,25.76,0,0,1,4.5,12.35.67.67,0,0,0-.31-.07c-.7,0-1.38-.11-2-.21-2-.29-7.91-2.77-9.09-4.22-2.09-2.6,1.57-4.7,3.43-6a28.61,28.61,0,0,1,2.9-1.7.92.92,0,0,0,.41-.42m5.82,12.49v0a27,27,0,0,0-4.7-12.92c-.4-.56-.8-1.1-1.22-1.6a2.55,2.55,0,0,0-.19-.23,21.36,21.36,0,0,0-1.56-1.73,25.93,25.93,0,0,0-4.16-3.41c-.26-.18-.51-.33-.77-.49a27,27,0,0,0-5.75-2.67,26.39,26.39,0,0,0-8-1.26h-.14c-.54,0-1.26,0-2,.08a23.87,23.87,0,0,0-3.63.53,26.2,26.2,0,0,0-8.37,3.39,23.63,23.63,0,0,0-3.38,2.53,26.52,26.52,0,0,0-9.06,17.55c-.07.75-.12,1.55-.13,2.35v38.53A26.68,26.68,0,0,0,947.7,859a3.4,3.4,0,0,0,.21.28l.09.11a25.93,25.93,0,0,0,4.64,5l.14.12a26.42,26.42,0,0,0,3.3,2.29c.64.38,1.33.76,2.06,1.1.34.16.67.31,1,.42.53.24,1,.43,1.37.56a26.07,26.07,0,0,0,9,1.59,26.66,26.66,0,0,0,24.88-17.4c.06-.15.11-.29.18-.52a26.34,26.34,0,0,0,1.47-8c0-.28,0-.57,0-.85V805.55c0-.82,0-1.61-.1-2.4"/></svg>